<?xml version="1.0" encoding="utf-8"?>
<!-- Generator: Adobe Illustrator 20.1.0, SVG Export Plug-In . SVG Version: 6.00 Build 0)  -->
<svg version="1.1" id="Layer_1" xmlns="http://www.w3.org/2000/svg" xmlns:xlink="http://www.w3.org/1999/xlink" x="0px" y="0px"
	 viewBox="0 0 252 144" enable-background="new 0 0 252 144" xml:space="preserve">
<rect x="22.7" y="42.7" width="199.5" height="52.4"/>
<g>
	<path fill="#FFFFFF" stroke="#FFFFFF" stroke-miterlimit="10" d="M67.7,65c0,4.2-2.1,8.2-6.3,12c-6.4,5.9-13.6,8.8-21.6,8.8
		c-0.9,0-1.6,0-2.1-0.1c-2.6-0.1-4.7-1-6.3-2.6c-1.6-1.6-2.4-3.7-2.4-6.3c0-2.6,0.7-5.4,2-8.4c1.7-3.8,5-7.6,9.9-11.2
		c5.7-4.1,11.5-6.2,17.6-6.2c3.3,0,5.7,0.7,7.4,2c1.7,1.3,2.5,2.9,2.5,4.9c0,1.2-0.5,2.7-1.4,4.5C67.6,63.2,67.7,64.1,67.7,65z
		 M66.7,60.8c0.3-0.8,0.5-1.7,0.5-2.7c0-1-0.4-2-1.1-3c-1.4-2-3.9-3-7.4-3c-4.9,0-9.6,1.6-13.9,4.7c-4.4,3.1-7.8,7.1-10.2,11.8
		c-1.8,3.4-2.7,6.5-2.7,9.3c0,4.4,2.2,6.7,6.5,7c0.5,0,0.9,0.1,1.4,0.1c6.4,0,12.5-2.7,18.4-8c4.2-3.8,6.4-7.4,6.8-10.9
		c-1.7,1.9-4.6,4.2-8.8,6.8l-0.4,0.1c0,0,0,0,0-0.1c0-0.1,0.4-0.6,1.3-1.4l2.7-2.3c2.3-2.1,4.1-3.8,5.1-5.2
		c-0.2-1.9-1.1-3.4-2.5-4.7c-1.4-1.3-3-2.2-4.9-2.7c-0.9-0.2-2.3-0.4-4.2-0.5c-1.9-0.1-2.9-0.1-2.9-0.2c0-0.1,0-0.1,0.1-0.2
		c1.5-0.5,2.9-0.8,4.3-0.8c1.4,0,3,0.2,4.8,0.7C62.9,56.5,65.3,58.2,66.7,60.8z"/>
	<path fill="#FFFFFF" stroke="#FFFFFF" stroke-miterlimit="10" d="M67.5,77.5c0,0.7,0.4,1.1,1.2,1.1c0.8,0,1.8-0.4,3-1.3
		c1.2-0.8,2.5-2,3.6-3.4c0.3-0.4,0.5-0.6,0.7-0.6c0.2,0,0.3,0.1,0.3,0.2s-0.5,0.8-1.5,1.9c-2.4,2.6-4.4,3.9-6,3.9
		c-0.8,0-1.5-0.2-2-0.6c-0.6-0.4-0.8-0.9-0.8-1.7c0-0.8,0.2-1.7,0.6-2.7c0.7-1.6,1.8-3.7,3.3-6.1c2.8-4.5,4.8-6.8,6-6.8
		c0.2,0,0.5,0.1,0.7,0.3c0.3,0.2,0.4,0.4,0.4,0.6c-0.6,0.7-1.6,2.2-3.2,4.3c-1.6,2.1-2.6,3.6-3.2,4.5c-0.6,0.9-1,1.6-1.3,2.1
		c-0.3,0.5-0.5,0.8-0.7,1.1c-0.1,0.3-0.3,0.6-0.5,1C67.7,76.1,67.5,76.8,67.5,77.5z"/>
	<path fill="#FFFFFF" stroke="#FFFFFF" stroke-miterlimit="10" d="M75.5,79.7c-1.5,0-2.2-0.9-2.2-2.6c0-1.4,0.9-3.3,2.6-5.8
		c1.7-2.5,3.1-3.7,4.2-3.7c0.3,0,0.6,0.1,1,0.3s0.5,0.4,0.5,0.6c-0.1,0.2-0.3,0.4-0.5,0.6c-0.2,0.2-0.4,0.5-0.7,0.7
		c-0.2,0.3-0.6,0.6-1,1.1c-0.4,0.5-0.8,0.9-1.2,1.4c-2.2,2.5-3.3,4.2-3.3,5.2c0,0.9,0.4,1.4,1.1,1.4c0.6,0,1.4-0.3,2.5-0.9
		c2.4-1.3,4.4-2.8,5.8-4.4c0.5-0.6,0.9-0.9,1.1-0.9c0.2,0,0.3,0.1,0.3,0.3c0,0.2-0.3,0.6-1,1.2c-0.7,0.6-1.2,1.1-1.6,1.5
		c-0.4,0.4-0.7,0.6-0.8,0.7c-0.1,0.1-0.4,0.3-0.8,0.7c-0.4,0.3-0.7,0.5-0.9,0.7c-0.2,0.1-0.5,0.3-0.9,0.6c-0.4,0.3-0.7,0.4-1,0.6
		c-0.3,0.1-0.6,0.3-1,0.4C77.1,79.6,76.4,79.7,75.5,79.7z"/>
	<path fill="#FFFFFF" stroke="#FFFFFF" stroke-miterlimit="10" d="M92.6,65.2c0.7,0,1.3,0.2,1.8,0.7c0.5,0.5,0.8,1.1,0.8,2
		c0,1.9-1.6,4.3-4.7,7.1c-2.7,2.4-4.8,3.8-6.4,4.4c-0.3,0-0.6-0.1-1-0.4c-0.4-0.3-0.6-0.6-0.6-0.8c0-0.5,0.6-2.3,1.7-5.3
		c1.1-3,1.9-4.7,2.4-5.1c0.1-0.1,0.3-0.1,0.5-0.1c0.2,0,0.4,0.1,0.7,0.3c0.2,0.2,0.4,0.5,0.4,0.8c0,0-0.6,1.4-1.8,4.2
		c-1.2,2.7-1.7,4.4-1.7,4.9c1-0.3,2.9-1.6,5.5-3.8c2.6-2.2,4-4.2,4-5.9c0-1.1-0.5-1.8-1.6-2.3c-0.2-0.1-0.3-0.2-0.3-0.3
		C92.2,65.3,92.4,65.2,92.6,65.2z"/>
	<path fill="#FFFFFF" stroke="#FFFFFF" stroke-miterlimit="10" d="M95,79.7c-1.3,0-1.9-0.8-1.9-2.5c0-1.4,0.7-3.2,2.2-5.6
		c1.5-2.4,2.6-3.6,3.5-3.6c0.2,0,0.5,0.1,0.8,0.3c0.3,0.2,0.5,0.4,0.5,0.6c-0.1,0.2-0.3,0.4-0.4,0.6c-0.2,0.2-0.4,0.4-0.6,0.7
		c-0.2,0.3-0.5,0.6-0.8,1.1c-0.3,0.5-0.7,0.9-1,1.3c-1.8,2.4-2.8,4.1-2.8,5c0,0.9,0.3,1.4,0.9,1.4c0.5,0,1.2-0.3,2.1-0.9
		c2.1-1.3,3.7-2.7,4.9-4.3c0.4-0.6,0.7-0.9,0.9-0.9c0.2,0,0.2,0.1,0.2,0.3c0,0.2-0.3,0.6-0.9,1.2c-0.6,0.6-1,1.1-1.4,1.4
		c-0.3,0.4-0.6,0.6-0.7,0.7c-0.1,0.1-0.4,0.3-0.7,0.6c-0.3,0.3-0.6,0.5-0.8,0.7c-0.2,0.1-0.4,0.3-0.7,0.6c-0.3,0.3-0.6,0.4-0.9,0.5
		c-0.2,0.1-0.5,0.2-0.9,0.4C96.4,79.6,95.7,79.7,95,79.7z"/>
	<path fill="#FFFFFF" stroke="#FFFFFF" stroke-miterlimit="10" d="M113.7,68.6l0.5-0.1c0.3,0,0.5,0.1,0.8,0.3
		c0.2,0.2,0.4,0.4,0.4,0.5s-0.7,1.3-2.2,3.5c-1.5,2.2-2.2,3.7-2.2,4.6c0,0.1,0,0.1,0,0.2c0.1,0.6,0.4,0.8,0.8,0.8
		c1.2,0,3.5-2.1,6.8-6.2c0.1-0.1,0.2-0.1,0.3-0.1c0.1,0,0.1,0.1,0.1,0.3c0,0.2-0.1,0.4-0.3,0.7c-3.1,4.1-5.4,6.1-7,6.1
		c-0.2,0-0.4,0-0.6-0.1c-1.1-0.4-1.6-1.2-1.6-2.4c0-0.4,0-0.8,0.1-1.2l-2.2,2.2c-1.4,1.2-2.4,1.9-3.1,1.9c-0.6,0-1.2-0.2-1.8-0.6
		c-0.6-0.5-1-1.1-1-1.9c0-1.7,1.2-3.8,3.7-6.3c2.4-2.4,4.7-3.6,6.7-3.6c0.8,0,1.3,0.3,1.6,0.8c0.1,0.2,0.1,0.4,0.2,0.5
		C113.7,68.5,113.7,68.6,113.7,68.6z M103,77.4c0,0.9,0.3,1.3,0.9,1.3c1.4,0,3.3-1.5,5.7-4.6l3.8-5.2c-0.2-0.3-0.5-0.5-0.9-0.5
		c-1.5,0-3.4,1.1-5.8,3.4C104.2,74.1,103,76,103,77.4z"/>
	<path fill="#FFFFFF" stroke="#FFFFFF" stroke-miterlimit="10" d="M160.6,69l4.3-0.1c1.1,0,1.6,0.1,1.6,0.2c0,0.4-2.1,0.7-6.4,1
		c-2.7,5.3-4.1,9-4.1,10.9c0,1.3,0.4,2,1.3,2c0.3,0,0.7-0.2,1.2-0.6c0.5-0.4,0.8-0.6,0.9-0.6c0.1,0,0.2,0.1,0.2,0.2
		c-0.1,0.5-0.6,1-1.3,1.3c-0.7,0.4-1.4,0.5-1.9,0.5c-0.5,0-0.9,0-1.2-0.1c-0.7-0.3-1.1-1.1-1.1-2.5c0-3,1.1-6.7,3.4-11.3l-5.3,0.1
		c-3.9,3.8-7.9,7.2-11.8,10.1c-5.9,4.3-10.5,6.5-13.9,6.5c-0.2,0-0.4,0-0.6,0c-4.5-0.4-6.8-2.7-6.8-6.9c0-2.5,0.8-5.2,2.4-8
		c2.1-3.7,5-7,8.7-9.6c3.7-2.7,6.9-4,9.8-4c2.9,0,4.4,1.1,4.4,3.2c0,1.4-0.4,3-1.3,4.8c-0.9,1.8-1.8,2.9-2.7,3.3c-0.1,0-0.2,0-0.3,0
		c-0.1,0-0.2,0-0.2-0.1l1.4-2.4c1-1.6,1.5-2.9,1.5-4.1c0-1.2-0.3-2.1-0.8-2.8c-0.5-0.7-1.3-1.1-2.4-1.1c-2.3,0-5,1.3-8.2,3.8
		c-3.2,2.5-5.6,5.7-7.3,9.4c-1.7,3.7-2.5,6.6-2.5,8.7c0,3.1,1.6,4.7,4.8,4.7c3,0,7.2-2,12.4-5.9c2.3-1.7,6.1-5,11.3-9.8
		c-1,0.1-2,0.2-2.9,0.3c-1.9,0.4-2.8,0.3-2.6-0.2c0.1-1.1,0.7-1.6,1.7-1.6c1.9,0.2,3.6,0.4,4.9,0.4c2.5-2.3,6.3-6.1,11.3-11.4
		c3.4-3.5,5.4-5.3,6.2-5.3c0.3,0,0.5,0.2,0.5,0.7c0,0.5-0.1,1.3-0.4,2.3c-0.3,1.1-0.6,1.7-0.9,1.9c-0.7,0.5-1.3,1.1-1.9,1.9
		c-0.6,0.8-1.4,2.3-2.5,4.5C162.3,65.8,161.4,67.6,160.6,69z M164.1,58.3l-11.3,10.5h2.6c0.6,0,1.4,0,2.3,0
		C158.6,67.2,160.7,63.7,164.1,58.3z"/>
	<path fill="#FFFFFF" stroke="#FFFFFF" stroke-miterlimit="10" d="M167.5,79.5c-1.8,0-2.7-1-2.7-3c0-1,0.3-2.1,0.8-3.3
		c0.5-1.2,1.1-2.2,1.7-3c-0.1,0-0.3,0-0.5,0c-0.6,0-1.1-0.4-1.4-1.2l-2.7,3.4c-1.5,1.8-2.3,2.8-2.6,2.8c-0.1,0-0.2,0-0.2-0.1
		c0-0.2,0.2-0.6,0.6-1c2.1-2.4,3.6-4.5,4.4-6.1c0.5-2.1,1.2-3.1,2.1-3.1c0.6,0,0.8,0.2,0.8,0.7s-0.3,1.1-0.9,1.8l-0.9,1.1
		c0,0.5,0.4,0.8,1.1,0.8c0.4,0,0.9-0.2,1.4-0.5l0.9-0.6c0,0,0.2,0,0.4,0c0.2,0,0.4,0.1,0.6,0.4c0.2,0.2,0.3,0.5,0.2,0.6l-2.5,3.1
		c-1.5,2-2.3,3.5-2.3,4.6c0,1.1,0.5,1.7,1.6,1.7c1.1,0,2.5-0.6,4.1-1.8c1-0.7,1.8-1.5,2.6-2.3c0.7-0.9,1.1-1.3,1.2-1.3
		c0.2,0,0.3,0.1,0.3,0.3c0,0.2-0.1,0.4-0.3,0.6l-1.1,1.3c-0.6,0.7-1.4,1.3-2.2,1.9C170.3,78.8,168.8,79.5,167.5,79.5z"/>
	<path fill="#FFFFFF" stroke="#FFFFFF" stroke-miterlimit="10" d="M186.2,68.5c2.7-4.4,4.5-6.5,5.6-6.5c0.2,0,0.4,0.1,0.7,0.2
		s0.4,0.3,0.4,0.5c0,0.1-0.1,0.3-0.2,0.5c-1.9,2.3-3.3,4.1-4.3,5.3c-2.8,3.6-4.4,6.1-4.7,7.7c-0.1,0.3-0.1,0.7-0.1,1
		c0,1.1,0.4,1.6,1.3,1.6c1.8,0,4.1-1.6,6.9-4.9c0.2-0.2,0.4-0.4,0.6-0.4c0.2,0,0.3,0,0.3,0.1s-0.1,0.3-0.2,0.4
		c-2.8,3.3-5.2,5.2-7.4,5.6c-0.1,0-0.3,0-0.5,0c-0.7,0-1.3-0.3-1.7-0.8c-0.4-0.5-0.6-1.1-0.6-1.7c0-0.7,0.1-1.4,0.4-2.2l-2.9,2.9
		c-1.3,1.2-2.3,1.8-3.1,1.8c-0.8,0-1.4-0.2-1.9-0.6c-0.6-0.5-0.9-1.1-0.9-1.9c0-1.7,1.2-3.8,3.7-6.3c2.4-2.4,4.7-3.6,6.7-3.6
		c0.7,0,1.1,0.2,1.4,0.5C185.9,67.8,186,68,186.2,68.5z M175.6,77.4c0,0.9,0.3,1.3,0.9,1.3c1,0,2.7-1.4,5.1-4.2
		c0.4-0.5,1.9-2.4,4.3-5.6c-0.2-0.3-0.5-0.4-0.9-0.4c-1.5,0-3.4,1.1-5.8,3.4C176.8,74.1,175.6,76,175.6,77.4z"/>
	<path fill="#FFFFFF" stroke="#FFFFFF" stroke-miterlimit="10" d="M192.9,79.8c-0.3,0-0.5,0-0.7-0.1c-1.5-0.4-2.3-1.3-2.3-2.6
		c0-1.7,1.1-3.6,3.2-5.8c2.1-2.2,4-3.3,5.7-3.3c0.5,0,1,0.1,1.3,0.4c0.3,0.3,0.5,0.7,0.5,1.1c0,1.3-1,2.6-3,3.8
		c-2,1.2-3.7,1.8-4.9,1.8c-0.2,0-0.4,0-0.5-0.1c-0.4,0.6-0.5,1.3-0.5,2c0,1.2,0.6,1.9,1.8,1.9s2.7-0.8,4.6-2.4
		c1.5-1.2,2.7-2.4,3.7-3.7c0.2-0.3,0.4-0.4,0.6-0.4c0.2,0,0.2,0.1,0.2,0.2s-0.1,0.3-0.3,0.6c-1.3,1.7-2.8,3.2-4.7,4.5
		C195.7,79.1,194.2,79.8,192.9,79.8z M199.7,69.5c0-0.3-0.3-0.4-0.9-0.4c-0.6,0-1.5,0.5-2.6,1.4c-1.5,1.2-2.7,2.5-3.5,3.9
		c0.1,0,0.3,0.1,0.5,0.1c0.9,0,2.1-0.5,3.6-1.5c1.5-1,2.5-2,2.9-3.2C199.7,69.7,199.7,69.6,199.7,69.5z"/>
	<path fill="#FFFFFF" stroke="#FFFFFF" stroke-miterlimit="10" d="M206.1,68c0.6,0,1,0.3,1,0.8c0,0.1,0,0.3-0.1,0.4
		c-2.2,3-3.4,5.2-3.9,6.8c5.6-5.6,9-8.4,10.1-8.4c0.1,0,0.2,0,0.3,0c0.7,0,1,0.3,1,0.9c0,0.1,0,0.2-0.1,0.4c0,0.1-0.5,0.8-1.4,1.9
		c-1.1,1.2-1.9,2.4-2.7,3.6c-0.7,1.1-1.1,2.1-1.1,2.9c0,0.8,0.2,1.1,0.5,1.1c1.1,0,2.9-1.4,5.5-4.3c0,0,0.1-0.2,0.3-0.3
		c0.4-0.4,0.6-0.6,0.6-0.6c0.1,0,0.1,0.1,0.1,0.4s-0.2,0.5-0.5,0.9c-3,3.4-5.1,5.1-6.3,5.1c-1.2,0-1.8-0.6-1.8-1.9
		c0-1.3,0.5-2.8,1.4-4.4l2.3-3.7c-1.6,1.2-3.1,2.5-4.3,3.9c-1.3,1.4-2.4,2.8-3.5,4.1c-1,1.3-1.6,2-1.8,2c-0.4,0-0.6-0.1-0.8-0.4
		c-0.2-0.3-0.3-0.7-0.3-1.1s0.2-1,0.5-1.8c0.3-0.7,0.7-1.6,1.2-2.7l-2.2,2.3c-0.5,0.5-0.9,0.8-1,0.8c-0.1,0-0.2-0.1-0.2-0.2
		s0.1-0.3,0.3-0.5c0.9-0.9,1.6-1.7,2.3-2.5c0.6-0.8,1.9-2.4,3.8-4.7C205.6,68.1,205.9,68,206.1,68z"/>
</g>
</svg>
